<svg xmlns="http://www.w3.org/2000/svg" fill="none" viewBox="0 0 24 24" id="Sanity--Streamline-Svg-Logos" height="24" width="24"><desc>Sanity Streamline Icon: https://streamlinehq.com</desc><path fill="#f37368" d="M17.785025 11.309475V14.292h-0.9608V10.8424l0.9608 0.467075Z" stroke-width="0.25"></path><path fill="#f7a199" d="m4.186775 13.738275 0.7206 0.6272 3.035925 -1.581325 -0.3136 -0.753975 -3.442925 1.7081Zm12.637425 -1.921625 2.442075 -1.26775 -0.4137 -0.71395 -2.028375 1.007525v0.974175Z" stroke-width="0.25"></path><path fill="#f37368" d="M9.951675 11.07595v3.216075h-0.920775V9.708125l0.920775 1.367825ZM4.186775 13.738225l0.7206 0.6272 1.38785 -3.469625 -0.44705 -1.187675 -1.6614 4.0301Z" stroke-width="0.25"></path><path fill="#f04939" d="M5.848025 9.708125h0.947475l1.754825 4.5839h-0.974175l-1.728125 -4.5839Zm4.2436 0 2.021725 3.129325v1.454575L9.030725 9.708125h1.0609Zm3.75655 0h0.954125v4.5839h-0.954125V9.708125Zm2.97585 0.840725h-1.4679v-0.840725h3.4229l0.487075 0.840725h-2.442075Z" stroke-width="0.25"></path><path fill="#f7a199" d="M22.088475 12.550525v1.7415H21.141v-1.7415" stroke-width="0.25"></path><path fill="#f04939" d="M22.74235 9.708125 21.141 12.55055h0.947475l1.6614 -2.842425h-1.007525Z" stroke-width="0.25"></path><path fill="#f37368" d="m21.1412 12.55055 -1.65475 -2.842425h1.040875l1.1143 1.948325 -0.500425 0.8941Z" stroke-width="0.25"></path><path fill="#f04939" d="M0.6302975 10.241825c0 0.633875 0.3936675 1.0142 1.181005 1.214375l0.8340475 0.193475c0.7473 0.1735 1.201025 0.600525 1.201025 1.29445 0.006675 0.30025 -0.093425 0.593825 -0.273575 0.83405 0 -0.693925 -0.3603 -1.067575 -1.2210375 -1.29445l-0.8207 -0.186825c-0.66056 -0.1468 -1.16766 -0.500425 -1.16766 -1.2544 0 -0.2869 0.0934125 -0.573825 0.266895 -0.800675Z" stroke-width="0.25"></path><path fill="#f37368" d="M12.1134 12.603925V9.708125h0.920775v4.5839h-0.920775v-1.6881Z" stroke-width="0.25"></path><path fill="#f37368" d="M3.05905 12.77065c0.35365 0.22685 0.513775 0.547125 0.513775 1.007525 -0.30025 0.380325 -0.814025 0.58715 -1.4212075 0.58715C1.13075 14.365325 0.403465 13.85825 0.25 12.98415h0.980835c0.126775 0.40035 0.4603925 0.587175 0.9141125 0.587175 0.5404525 0.006675 0.9074275 -0.2869 0.9141025 -0.800675Zm-2.4287275 -2.5355c0.2869125 -0.37365 0.780665 -0.6005 1.3811775 -0.6005 1.04755 0 1.648075 0.5538 1.801525 1.3278h-0.947475c-0.10675 -0.306925 -0.36697 -0.54715 -0.840705 -0.54715 -0.5137725 0.006675 -0.8607325 0.300275 -0.88075 0.767325 -0.343825 -0.189625 -0.527115 -0.560475 -0.5137725 -0.947475Z" stroke-width="0.25"></path></svg>